<?xml version="1.0" encoding="iso-8859-1"?>
<!-- Generator: Adobe Illustrator 19.0.0, SVG Export Plug-In . SVG Version: 6.00 Build 0)  -->
<svg xmlns="http://www.w3.org/2000/svg" xmlns:xlink="http://www.w3.org/1999/xlink" version="1.1" id="Capa_1" x="0px" y="0px" viewBox="0 0 465.031 465.031" style="enable-background:new 0 0 465.031 465.031;" xml:space="preserve" width="512" height="512">
<g>
	<path style="fill:#6ECDFB;" d="M205.866,292.315c7.96,7.96,7.96,20.86,0,28.82c-7.9,7.89-20.66,7.95-28.63,0.18   c-0.07-0.06-0.13-0.12-0.19-0.18l-33.15-33.15c-0.06-0.06-0.12-0.12-0.18-0.19c-7.78-7.97-7.72-20.73,0.18-28.63   c7.96-7.96,20.86-7.96,28.82,0L205.866,292.315z"/>
	<path style="fill:#6ECDFB;" d="M263.496,234.685c7.96,7.95,7.96,20.86,0,28.81c-7.95,7.96-20.86,7.96-28.81,0l-33.15-33.15   c-7.96-7.96-7.96-20.86,0-28.81c7.95-7.96,20.85-7.96,28.81,0L263.496,234.685z"/>
	<path style="fill:#6ECDFB;" d="M321.316,177.235c7.77,7.97,7.71,20.73-0.18,28.63c-7.96,7.96-20.86,7.96-28.82,0l-33.15-33.15   c-7.96-7.96-7.96-20.86,0-28.82c7.9-7.9,20.66-7.96,28.63-0.18L321.316,177.235z"/>
	<path style="fill:#1895C2;" d="M292.316,205.865c7.96,7.96,7.96,20.86,0,28.82c-7.96,7.95-20.86,7.95-28.82,0l-33.15-33.15   c-7.96-7.96-7.96-20.86,0-28.82c7.96-7.96,20.86-7.96,28.82,0L292.316,205.865z"/>
	<path style="fill:#1895C2;" d="M234.686,263.495c7.95,7.96,7.95,20.86,0,28.82c-7.96,7.96-20.86,7.96-28.82,0l-33.15-33.15   c-7.96-7.96-7.96-20.86,0-28.82c7.96-7.96,20.86-7.96,28.82,0L234.686,263.495z"/>
	<path style="fill:#C2DC71;" d="M193.416,337.495l-65.88-65.88c-15.83-15.82-41.48-15.82-57.31,0c-15.82,15.83-15.82,41.48,0,57.31   l65.88,65.88c15.83,15.82,41.48,15.82,57.31,0C209.236,378.975,209.236,353.325,193.416,337.495z"/>
	<path style="fill:#C2DC71;" d="M394.806,136.105l-65.88-65.88c-15.83-15.82-41.48-15.82-57.31,0c-15.82,15.83-15.82,41.48,0,57.31   l65.88,65.88c15.83,15.82,41.48,15.82,57.31,0C410.626,177.585,410.626,151.935,394.806,136.105z"/>
	<path style="fill:#8AA92C;" d="M70.226,328.925c0,0-22.97,6.97-51.1,18.85c-18.15,7.66-16.88,46.92,17.17,80.96   c34.04,34.05,73.3,35.32,80.96,17.17c11.88-28.13,18.85-51.1,18.85-51.1L70.226,328.925z"/>
	<path style="fill:#8AA92C;" d="M428.736,36.295c-34.04-34.05-73.3-35.32-80.96-17.17c-11.88,28.13-18.85,51.1-18.85,51.1   l65.88,65.88c0,0,22.97-6.97,51.1-18.85C464.056,109.595,462.786,70.335,428.736,36.295z"/>
	<path style="fill:#591200;" d="M54.943,399.482l-8.849,8.848c-2.929,2.929-2.929,7.678,0,10.607   c1.464,1.465,3.384,2.197,5.303,2.197s3.839-0.732,5.303-2.197l8.849-8.848c2.929-2.929,2.929-7.678,0-10.607   C62.621,396.552,57.872,396.553,54.943,399.482z"/>
	<path style="fill:#591200;" d="M434.041,30.989c-22.505-22.505-50.889-34.34-72.316-30.157   c-10.097,1.973-17.504,7.433-20.856,15.375c-7.203,17.062-12.589,32.122-15.78,41.559c-18.461-11.142-42.858-8.755-58.774,7.161   c-18.347,18.348-18.715,47.972-1.103,66.771c-4.237,1.326-8.12,3.666-11.351,6.896c-5.677,5.677-8.389,13.214-8.135,20.668   c-0.322-0.011-0.646-0.016-0.97-0.016c-7.446,0-14.447,2.9-19.711,8.165c-5.677,5.677-8.389,13.214-8.136,20.668   c-0.322-0.011-0.646-0.017-0.969-0.017c-7.446,0-14.447,2.9-19.712,8.165s-8.165,12.266-8.165,19.711   c0,0.324,0.006,0.647,0.017,0.97c-7.455-0.259-14.991,2.458-20.668,8.136c-5.677,5.677-8.389,13.214-8.135,20.668   c-0.322-0.011-0.646-0.017-0.97-0.017c-7.446,0-14.446,2.9-19.711,8.165c-3.29,3.29-5.583,7.203-6.882,11.364   c-8.93-8.379-20.527-12.975-32.83-12.975c-12.827,0-24.886,4.995-33.955,14.065c-9.07,9.07-14.065,21.128-14.065,33.955   c0,8.89,2.399,17.41,6.891,24.822c-9.438,3.193-24.494,8.577-41.546,15.776c-7.941,3.353-13.402,10.76-15.375,20.856   c-4.186,21.425,7.651,49.811,30.157,72.316c19.5,19.5,43.413,30.991,63.389,30.991c3.081,0,6.068-0.273,8.931-0.833   c10.096-1.973,17.503-7.433,20.855-15.374c7.203-17.061,12.588-32.121,15.78-41.559c18.461,11.142,42.859,8.755,58.773-7.161   c9.07-9.07,14.065-21.129,14.065-33.955c0-12.305-4.596-23.902-12.977-32.833c4.161-1.298,8.074-3.592,11.363-6.882   c5.265-5.265,8.165-12.266,8.165-19.711c0-0.324-0.006-0.647-0.017-0.97c7.461,0.255,14.991-2.458,20.669-8.135   c5.677-5.677,8.389-13.214,8.135-20.668c0.322,0.011,0.646,0.017,0.97,0.017c7.446,0,14.446-2.9,19.711-8.165   c5.678-5.677,8.39-13.215,8.136-20.669c0.322,0.011,0.646,0.017,0.97,0.017c7.446,0,14.446-2.9,19.711-8.165   c5.266-5.265,8.166-12.266,8.166-19.711c0-0.324-0.006-0.647-0.017-0.97c7.459,0.258,14.992-2.458,20.669-8.135   c3.289-3.29,5.583-7.203,6.881-11.364c18.799,17.627,48.434,17.266,66.788-1.087c15.915-15.915,18.303-40.313,7.16-58.773   c9.438-3.192,24.498-8.578,41.56-15.78c7.941-3.353,13.4-10.759,15.373-20.855C468.385,81.882,456.547,53.495,434.041,30.989z    M110.345,442.99c-1.73,4.098-6.346,5.79-9.913,6.486c-13.654,2.67-37.144-4.35-58.837-26.043   c-21.692-21.692-28.709-45.179-26.042-58.833c0.697-3.567,2.388-8.184,6.487-9.914c20.43-8.625,38.262-14.682,46.113-17.236   l7.036,7.036l-46.222,33.605c-3.351,2.436-4.092,7.126-1.656,10.477c2.436,3.35,7.127,4.093,10.477,1.656l48.14-35l6.636,6.636   l-16.043,16.043c-2.929,2.929-2.929,7.678,0,10.606c2.929,2.929,7.678,2.929,10.606,0l16.043-16.043l6.636,6.636l-35,48.142   c-2.436,3.35-1.694,8.041,1.656,10.477c3.35,2.436,8.041,1.695,10.477-1.656l33.605-46.224l7.036,7.036   C125.027,404.729,118.97,422.561,110.345,442.99z M188.111,389.498c-12.847,12.846-33.734,12.873-46.616,0.082   c-0.059-0.061-0.119-0.121-0.18-0.18l-15.054-15.054c-0.508-0.87-1.2-1.65-2.066-2.28c-0.202-0.147-0.409-0.282-0.621-0.406   l-30.203-30.204c-0.124-0.211-0.259-0.418-0.406-0.62c-0.63-0.867-1.411-1.559-2.28-2.066l-15.051-15.051   c-0.061-0.063-0.123-0.125-0.186-0.187c-6.183-6.227-9.587-14.483-9.587-23.264c0-8.82,3.435-17.112,9.671-23.349   s14.528-9.671,23.349-9.671c8.82,0,17.112,3.435,23.349,9.671l65.88,65.88c6.237,6.237,9.671,14.528,9.671,23.349   C197.783,374.969,194.348,383.261,188.111,389.498z M315.83,200.562c-5.021,5.022-13.191,5.02-18.211,0l-18.767-18.767   c-2.93-2.929-7.678-2.929-10.607,0c-2.929,2.929-2.929,7.678,0,10.606l18.767,18.767c2.433,2.432,3.772,5.666,3.772,9.105   s-1.34,6.673-3.772,9.105c-2.432,2.432-5.665,3.771-9.104,3.771s-6.673-1.339-9.104-3.771c-2.929-2.929-7.678-2.929-10.606,0   c-1.465,1.465-2.197,3.384-2.197,5.304s0.732,3.839,2.196,5.303c5.021,5.021,5.021,13.19,0,18.21   c-2.432,2.432-5.665,3.771-9.104,3.771s-6.673-1.339-9.104-3.771l-11.575-11.574c-2.929-2.929-7.678-2.929-10.606,0   c-2.929,2.929-2.929,7.678,0,10.606l11.574,11.574c5.02,5.021,5.02,13.19,0,18.21c-5.02,5.021-13.189,5.021-18.21,0   c-2.929-2.929-7.677-2.928-10.607,0c-1.464,1.465-2.196,3.384-2.196,5.303c0,1.919,0.732,3.839,2.197,5.303   c2.432,2.432,3.771,5.666,3.771,9.105s-1.339,6.673-3.771,9.105c-5.021,5.021-13.19,5.02-18.21,0l-33.151-33.151   c-5.021-5.021-5.021-13.19,0-18.21c2.432-2.432,5.666-3.771,9.105-3.771s6.673,1.339,9.104,3.771l11.575,11.574   c2.929,2.929,7.678,2.929,10.606,0c2.929-2.929,2.929-7.678,0-10.606l-11.574-11.574c-5.02-5.038-5.015-13.195,0-18.21   c5.021-5.02,13.19-5.021,18.21,0c2.929,2.929,7.678,2.929,10.606,0c1.464-1.464,2.197-3.384,2.197-5.303s-0.732-3.839-2.197-5.303   c-5.021-5.021-5.021-13.19,0-18.21c5.021-5.021,13.19-5.02,18.21,0l11.574,11.574c2.929,2.928,7.677,2.929,10.607,0   c2.929-2.929,2.929-7.678,0-10.606l-11.574-11.574c-5.021-5.021-5.021-13.19,0-18.21c2.432-2.432,5.665-3.771,9.104-3.771   s6.673,1.339,9.104,3.771c2.93,2.929,7.678,2.929,10.607,0c1.464-1.464,2.196-3.384,2.196-5.303s-0.732-3.839-2.196-5.303   c-5.021-5.021-5.021-13.189-0.001-18.209c2.433-2.432,5.666-3.772,9.105-3.772s6.673,1.339,9.104,3.771   c0.024,0.023,33.225,33.224,33.225,33.224C320.85,187.451,320.825,195.565,315.83,200.562z M389.498,188.111   c-6.236,6.237-14.528,9.671-23.348,9.671c-8.82,0-17.112-3.435-23.349-9.671l-16.253-16.253c-0.038-0.038-0.075-0.075-0.112-0.113   c-0.02-0.02-0.04-0.039-0.06-0.059l-49.456-49.456c-12.874-12.875-12.874-33.823,0-46.697c12.844-12.845,33.727-12.874,46.607-0.09   c0.065,0.067,0.131,0.134,0.199,0.199l15.044,15.044c0.507,0.869,1.199,1.649,2.065,2.279c0.202,0.146,0.408,0.282,0.619,0.406   l15.055,15.055c0.016,0.016,0.031,0.032,0.047,0.047c0.017,0.016,0.032,0.032,0.048,0.047l15.056,15.055   c0.123,0.211,0.259,0.418,0.405,0.62c0.63,0.867,1.41,1.558,2.279,2.066l15.053,15.053c0.061,0.062,0.121,0.123,0.183,0.183   C402.373,154.377,402.346,175.264,389.498,188.111z M449.477,100.432c-0.696,3.567-2.388,8.183-6.485,9.913   c-20.43,8.625-38.262,14.682-46.112,17.235l-7.036-7.036l46.224-33.605c3.351-2.436,4.092-7.126,1.656-10.477   s-7.127-4.09-10.477-1.656l-48.142,35l-6.636-6.636l16.043-16.043c2.93-2.929,2.93-7.677,0.001-10.606   c-2.93-2.929-7.679-2.93-10.606,0l-16.045,16.043l-6.636-6.636l34.999-48.14c2.436-3.35,1.694-8.041-1.656-10.477   c-3.349-2.435-8.04-1.693-10.477,1.656l-33.604,46.222l-7.036-7.036c2.551-7.844,8.599-25.654,17.235-46.112   c1.73-4.099,6.347-5.79,9.914-6.487c13.651-2.671,37.142,4.35,58.833,26.042C445.127,63.288,452.145,86.777,449.477,100.432z"/>
	<path style="fill:#591200;" d="M408.331,46.094l-8.849,8.849c-2.929,2.929-2.929,7.678,0.001,10.606   c1.464,1.465,3.384,2.197,5.303,2.197s3.839-0.732,5.304-2.197l8.849-8.849c2.929-2.929,2.929-7.678-0.001-10.606   C416.01,43.164,411.261,43.165,408.331,46.094z"/>
</g>















</svg>
